<!-- Generated by graphviz version 14.1.3 (20260303.0454)
 -->
<!-- Title: G Pages: 1 -->
<svg role="img" aria-label="Diagrama del proyecto" width="1059pt" height="519pt"
 viewBox="0.00 0.00 1059.00 519.00" xmlns="http://www.w3.org/2000/svg" xmlns:xlink="http://www.w3.org/1999/xlink">
<g id="graph0" class="graph" transform="scale(1 1) rotate(0) translate(21.6 497.2)">
<title>G</title>
<!-- Producto -->
<g id="node1" class="node">
<title>Producto</title>
<polygon fill="#e2e8f0" stroke="none" points="251.14,-443.8 251.14,-474.6 375.64,-474.6 375.64,-443.8 251.14,-443.8"/>
<text xml:space="preserve" text-anchor="start" x="282.67" y="-456" font-family="Arial" font-weight="bold" font-size="14.00">Producto</text>
<text xml:space="preserve" text-anchor="start" x="258.14" y="-422.8" font-family="Arial" font-size="14.00">Int id PK</text>
<text xml:space="preserve" text-anchor="start" x="258.14" y="-392" font-family="Arial" font-size="14.00">Int empresaId FK</text>
<text xml:space="preserve" text-anchor="start" x="258.14" y="-361.2" font-family="Arial" font-size="14.00">Int categoriaId FK</text>
<text xml:space="preserve" text-anchor="start" x="258.14" y="-330.4" font-family="Arial" font-size="14.00">String nombre</text>
<polygon fill="none" stroke="#94a3b8" points="250.14,-319.6 250.14,-475.6 376.64,-475.6 376.64,-319.6 250.14,-319.6"/>
</g>
<!-- DetallePedido -->
<g id="node5" class="node">
<title>DetallePedido</title>
<polygon fill="#e2e8f0" stroke="none" points="547.88,-365.8 547.88,-396.6 669.28,-396.6 669.28,-365.8 547.88,-365.8"/>
<text xml:space="preserve" text-anchor="start" x="562.29" y="-378" font-family="Arial" font-weight="bold" font-size="14.00">DetallePedido</text>
<text xml:space="preserve" text-anchor="start" x="554.88" y="-344.8" font-family="Arial" font-size="14.00">Int id PK</text>
<text xml:space="preserve" text-anchor="start" x="554.88" y="-314" font-family="Arial" font-size="14.00">Int pedidoId FK</text>
<text xml:space="preserve" text-anchor="start" x="554.88" y="-283.2" font-family="Arial" font-size="14.00">Int productoId FK</text>
<text xml:space="preserve" text-anchor="start" x="554.88" y="-252.4" font-family="Arial" font-size="14.00">Int cantidad</text>
<polygon fill="none" stroke="#94a3b8" points="546.88,-241.6 546.88,-397.6 670.28,-397.6 670.28,-241.6 546.88,-241.6"/>
</g>
<!-- Producto&#45;&gt;DetallePedido -->
<g id="edge3" class="edge">
<title>Producto&#45;&gt;DetallePedido</title>
<path fill="none" stroke="#64748b" d="M376.57,-381.06C426.83,-367.69 497.17,-348.97 547,-335.72"/>
<text xml:space="preserve" text-anchor="middle" x="453.78" y="-368.59" font-family="Arial" font-size="10.00">productoId</text>
<text xml:space="preserve" text-anchor="middle" x="531.65" y="-345.55" font-family="Arial" font-size="10.00">0..N</text>
<text xml:space="preserve" text-anchor="middle" x="391.91" y="-365.23" font-family="Arial" font-size="10.00">1</text>
</g>
<!-- Adicional -->
<g id="node2" class="node">
<title>Adicional</title>
<polygon fill="#e2e8f0" stroke="none" points="514.41,-170.2 514.41,-201 702.75,-201 702.75,-170.2 514.41,-170.2"/>
<text xml:space="preserve" text-anchor="start" x="577.08" y="-182.4" font-family="Arial" font-weight="bold" font-size="14.00">Adicional</text>
<text xml:space="preserve" text-anchor="start" x="521.41" y="-149.2" font-family="Arial" font-size="14.00">Int id PK</text>
<text xml:space="preserve" text-anchor="start" x="521.41" y="-118.4" font-family="Arial" font-size="14.00">Int empresaId FK</text>
<text xml:space="preserve" text-anchor="start" x="521.41" y="-87.6" font-family="Arial" font-size="14.00">String nombre</text>
<text xml:space="preserve" text-anchor="start" x="521.41" y="-56.8" font-family="Arial" font-size="14.00">Int ingredienteId FK nullable</text>
<text xml:space="preserve" text-anchor="start" x="521.41" y="-26" font-family="Arial" font-size="14.00">Decimal cantidad nullable</text>
<polygon fill="none" stroke="#94a3b8" points="513.41,-15.2 513.41,-202 703.75,-202 703.75,-15.2 513.41,-15.2"/>
</g>
<!-- DetallePedidoAdicional -->
<g id="node6" class="node">
<title>DetallePedidoAdicional</title>
<polygon fill="#e2e8f0" stroke="none" points="845.69,-198.2 845.69,-229 1015.28,-229 1015.28,-198.2 845.69,-198.2"/>
<text xml:space="preserve" text-anchor="start" x="852.69" y="-210.4" font-family="Arial" font-weight="bold" font-size="14.00">DetallePedidoAdicional</text>
<text xml:space="preserve" text-anchor="start" x="852.69" y="-177.2" font-family="Arial" font-size="14.00">Int id PK</text>
<text xml:space="preserve" text-anchor="start" x="852.69" y="-146.4" font-family="Arial" font-size="14.00">Int detallePedidoId FK</text>
<text xml:space="preserve" text-anchor="start" x="852.69" y="-115.6" font-family="Arial" font-size="14.00">Int adicionalId FK</text>
<text xml:space="preserve" text-anchor="start" x="852.69" y="-84.8" font-family="Arial" font-size="14.00">String nombre</text>
<text xml:space="preserve" text-anchor="start" x="852.69" y="-54" font-family="Arial" font-size="14.00">Int cantidad</text>
<polygon fill="none" stroke="#94a3b8" points="844.69,-43.2 844.69,-230 1016.28,-230 1016.28,-43.2 844.69,-43.2"/>
</g>
<!-- Adicional&#45;&gt;DetallePedidoAdicional -->
<g id="edge5" class="edge">
<title>Adicional&#45;&gt;DetallePedidoAdicional</title>
<path fill="none" stroke="#64748b" d="M703.4,-116.81C748.2,-120.73 801.4,-125.39 844.94,-129.2"/>
<text xml:space="preserve" text-anchor="middle" x="774.22" y="-128.93" font-family="Arial" font-size="10.00">adicionalId</text>
<text xml:space="preserve" text-anchor="middle" x="826.15" y="-133.04" font-family="Arial" font-size="10.00">0..N</text>
<text xml:space="preserve" text-anchor="middle" x="722.19" y="-106.97" font-family="Arial" font-size="10.00">1</text>
</g>
<!-- Cliente -->
<g id="node3" class="node">
<title>Cliente</title>
<polygon fill="#e2e8f0" stroke="none" points="1,-170.4 1,-201.2 122.38,-201.2 122.38,-170.4 1,-170.4"/>
<text xml:space="preserve" text-anchor="start" x="38.35" y="-182.6" font-family="Arial" font-weight="bold" font-size="14.00">Cliente</text>
<text xml:space="preserve" text-anchor="start" x="8" y="-149.4" font-family="Arial" font-size="14.00">Int id PK</text>
<text xml:space="preserve" text-anchor="start" x="8" y="-118.6" font-family="Arial" font-size="14.00">Int empresaId FK</text>
<text xml:space="preserve" text-anchor="start" x="8" y="-87.8" font-family="Arial" font-size="14.00">String nombre</text>
<polygon fill="none" stroke="#94a3b8" points="0,-77 0,-202.2 123.38,-202.2 123.38,-77 0,-77"/>
</g>
<!-- Pedido -->
<g id="node4" class="node">
<title>Pedido</title>
<polygon fill="#e2e8f0" stroke="none" points="233.62,-247.4 233.62,-278.2 393.16,-278.2 393.16,-247.4 233.62,-247.4"/>
<text xml:space="preserve" text-anchor="start" x="290.06" y="-259.6" font-family="Arial" font-weight="bold" font-size="14.00">Pedido</text>
<text xml:space="preserve" text-anchor="start" x="240.62" y="-226.4" font-family="Arial" font-size="14.00">Int id PK</text>
<text xml:space="preserve" text-anchor="start" x="240.62" y="-195.6" font-family="Arial" font-size="14.00">Int sucursalId FK</text>
<text xml:space="preserve" text-anchor="start" x="240.62" y="-164.8" font-family="Arial" font-size="14.00">Int usuarioId FK</text>
<text xml:space="preserve" text-anchor="start" x="240.62" y="-134" font-family="Arial" font-size="14.00">Int clienteId FK nullable</text>
<text xml:space="preserve" text-anchor="start" x="240.62" y="-103.2" font-family="Arial" font-size="14.00">Int cajaId FK nullable</text>
<text xml:space="preserve" text-anchor="start" x="240.62" y="-72.4" font-family="Arial" font-size="14.00">String numero UK</text>
<text xml:space="preserve" text-anchor="start" x="240.62" y="-41.6" font-family="Arial" font-size="14.00">EstadoPedido estado</text>
<text xml:space="preserve" text-anchor="start" x="240.62" y="-10.8" font-family="Arial" font-size="14.00">Decimal total</text>
<polygon fill="none" stroke="#94a3b8" points="232.62,0 232.62,-279.2 394.16,-279.2 394.16,0 232.62,0"/>
</g>
<!-- Cliente&#45;&gt;Pedido -->
<g id="edge1" class="edge">
<title>Cliente&#45;&gt;Pedido</title>
<path fill="none" stroke="#64748b" d="M123.14,-139.6C156.04,-139.6 197.17,-139.6 232.68,-139.6"/>
<text xml:space="preserve" text-anchor="middle" x="178" y="-142.6" font-family="Arial" font-size="10.00">clienteId</text>
<text xml:space="preserve" text-anchor="middle" x="214.55" y="-145.05" font-family="Arial" font-size="10.00">0..N</text>
<text xml:space="preserve" text-anchor="middle" x="141.26" y="-128.15" font-family="Arial" font-size="10.00">0..1</text>
</g>
<!-- Pedido&#45;&gt;DetallePedido -->
<g id="edge2" class="edge">
<title>Pedido&#45;&gt;DetallePedido</title>
<path fill="none" stroke="#64748b" d="M394.12,-188.55C442.28,-218.11 502.69,-255.2 546.94,-282.37"/>
<text xml:space="preserve" text-anchor="middle" x="453.78" y="-238" font-family="Arial" font-size="10.00">pedidoId</text>
<text xml:space="preserve" text-anchor="middle" x="527.07" y="-277.09" font-family="Arial" font-size="10.00">0..N</text>
<text xml:space="preserve" text-anchor="middle" x="413.99" y="-187.83" font-family="Arial" font-size="10.00">1</text>
</g>
<!-- DetallePedido&#45;&gt;DetallePedidoAdicional -->
<g id="edge4" class="edge">
<title>DetallePedido&#45;&gt;DetallePedidoAdicional</title>
<path fill="none" stroke="#64748b" d="M670.13,-284.96C719.49,-256.73 789.77,-216.52 844.73,-185.08"/>
<text xml:space="preserve" text-anchor="middle" x="774.22" y="-247.49" font-family="Arial" font-size="10.00">detallePedidoId</text>
<text xml:space="preserve" text-anchor="middle" x="833.19" y="-198.42" font-family="Arial" font-size="10.00">0..N</text>
<text xml:space="preserve" text-anchor="middle" x="681.66" y="-265.63" font-family="Arial" font-size="10.00">1</text>
</g>
</g>
</svg>
