<!-- Generated by graphviz version 14.1.3 (20260303.0454)
 -->
<!-- Title: G Pages: 1 -->
<svg role="img" aria-label="Diagrama del proyecto" width="1373pt" height="615pt"
 viewBox="0.00 0.00 1373.00 615.00" xmlns="http://www.w3.org/2000/svg" xmlns:xlink="http://www.w3.org/1999/xlink">
<g id="graph0" class="graph" transform="scale(1 1) rotate(0) translate(21.6 593)">
<title>G</title>
<!-- Empresa -->
<g id="node1" class="node">
<title>Empresa</title>
<polygon fill="#e2e8f0" stroke="none" points="1,-334.6 1,-365.4 144.96,-365.4 144.96,-334.6 1,-334.6"/>
<text xml:space="preserve" text-anchor="start" x="43.41" y="-346.8" font-family="Arial" font-weight="bold" font-size="14.00">Empresa</text>
<text xml:space="preserve" text-anchor="start" x="8" y="-313.6" font-family="Arial" font-size="14.00">Int id PK</text>
<text xml:space="preserve" text-anchor="start" x="8" y="-282.8" font-family="Arial" font-size="14.00">String nombre</text>
<text xml:space="preserve" text-anchor="start" x="8" y="-252" font-family="Arial" font-size="14.00">String nit UK</text>
<text xml:space="preserve" text-anchor="start" x="8" y="-221.2" font-family="Arial" font-size="14.00">String tiendaSlug UK</text>
<polygon fill="none" stroke="#94a3b8" points="0,-210.4 0,-366.4 145.96,-366.4 145.96,-210.4 0,-210.4"/>
</g>
<!-- Sucursal -->
<g id="node2" class="node">
<title>Sucursal</title>
<polygon fill="#e2e8f0" stroke="none" points="266.21,-392.2 266.21,-423 387.59,-423 387.59,-392.2 266.21,-392.2"/>
<text xml:space="preserve" text-anchor="start" x="297.33" y="-404.4" font-family="Arial" font-weight="bold" font-size="14.00">Sucursal</text>
<text xml:space="preserve" text-anchor="start" x="273.21" y="-371.2" font-family="Arial" font-size="14.00">Int id PK</text>
<text xml:space="preserve" text-anchor="start" x="273.21" y="-340.4" font-family="Arial" font-size="14.00">Int empresaId FK</text>
<text xml:space="preserve" text-anchor="start" x="273.21" y="-309.6" font-family="Arial" font-size="14.00">String nombre</text>
<polygon fill="none" stroke="#94a3b8" points="265.21,-298.8 265.21,-424 388.59,-424 388.59,-298.8 265.21,-298.8"/>
</g>
<!-- Empresa&#45;&gt;Sucursal -->
<g id="edge1" class="edge">
<title>Empresa&#45;&gt;Sucursal</title>
<path fill="none" stroke="#64748b" d="M145.83,-309.22C183.65,-320.18 229.49,-333.46 265.46,-343.88"/>
<text xml:space="preserve" text-anchor="middle" x="205.59" y="-334.44" font-family="Arial" font-size="10.00">empresaId</text>
<text xml:space="preserve" text-anchor="middle" x="245.69" y="-343.96" font-family="Arial" font-size="10.00">0..N</text>
<text xml:space="preserve" text-anchor="middle" x="165.6" y="-303.15" font-family="Arial" font-size="10.00">1</text>
</g>
<!-- Usuario -->
<g id="node3" class="node">
<title>Usuario</title>
<polygon fill="#e2e8f0" stroke="none" points="584.97,-155 584.97,-185.8 758.5,-185.8 758.5,-155 584.97,-155"/>
<text xml:space="preserve" text-anchor="start" x="645.67" y="-167.2" font-family="Arial" font-weight="bold" font-size="14.00">Usuario</text>
<text xml:space="preserve" text-anchor="start" x="591.97" y="-134" font-family="Arial" font-size="14.00">Int id PK</text>
<text xml:space="preserve" text-anchor="start" x="591.97" y="-103.2" font-family="Arial" font-size="14.00">Int empresaId FK nullable</text>
<text xml:space="preserve" text-anchor="start" x="591.97" y="-72.4" font-family="Arial" font-size="14.00">Int sucursalId FK nullable</text>
<text xml:space="preserve" text-anchor="start" x="591.97" y="-41.6" font-family="Arial" font-size="14.00">String nombre</text>
<text xml:space="preserve" text-anchor="start" x="591.97" y="-10.8" font-family="Arial" font-size="14.00">String email UK</text>
<polygon fill="none" stroke="#94a3b8" points="583.97,0 583.97,-186.8 759.5,-186.8 759.5,0 583.97,0"/>
</g>
<!-- Empresa&#45;&gt;Usuario -->
<g id="edge2" class="edge">
<title>Empresa&#45;&gt;Usuario</title>
<path fill="none" stroke="#64748b" d="M145.78,-257.68C248.35,-213.8 424.59,-138.4 424.59,-138.4 424.59,-138.4 513.37,-122.17 584.3,-109.2"/>
<text xml:space="preserve" text-anchor="middle" x="326.9" y="-208.91" font-family="Arial" font-size="10.00">empresaId</text>
<text xml:space="preserve" text-anchor="middle" x="567.99" y="-117.78" font-family="Arial" font-size="10.00">0..N</text>
<text xml:space="preserve" text-anchor="middle" x="159.12" y="-239.78" font-family="Arial" font-size="10.00">0..1</text>
</g>
<!-- Cliente -->
<g id="node4" class="node">
<title>Cliente</title>
<polygon fill="#e2e8f0" stroke="none" points="425.59,-252.2 425.59,-283 546.97,-283 546.97,-252.2 425.59,-252.2"/>
<text xml:space="preserve" text-anchor="start" x="462.94" y="-264.4" font-family="Arial" font-weight="bold" font-size="14.00">Cliente</text>
<text xml:space="preserve" text-anchor="start" x="432.59" y="-231.2" font-family="Arial" font-size="14.00">Int id PK</text>
<text xml:space="preserve" text-anchor="start" x="432.59" y="-200.4" font-family="Arial" font-size="14.00">Int empresaId FK</text>
<text xml:space="preserve" text-anchor="start" x="432.59" y="-169.6" font-family="Arial" font-size="14.00">String nombre</text>
<polygon fill="none" stroke="#94a3b8" points="424.59,-158.8 424.59,-284 547.97,-284 547.97,-158.8 424.59,-158.8"/>
</g>
<!-- Empresa&#45;&gt;Cliente -->
<g id="edge4" class="edge">
<title>Empresa&#45;&gt;Cliente</title>
<path fill="none" stroke="#64748b" d="M145.62,-276.73C224.68,-263.85 350.54,-243.35 424.82,-231.25"/>
<text xml:space="preserve" text-anchor="middle" x="205.59" y="-273.17" font-family="Arial" font-size="10.00">empresaId</text>
<text xml:space="preserve" text-anchor="middle" x="408.29" y="-239.51" font-family="Arial" font-size="10.00">0..N</text>
<text xml:space="preserve" text-anchor="middle" x="162.16" y="-262.47" font-family="Arial" font-size="10.00">1</text>
</g>
<!-- PedidoWeb -->
<g id="node6" class="node">
<title>PedidoWeb</title>
<polygon fill="#e2e8f0" stroke="none" points="1149.97,-515.2 1149.97,-546 1328.95,-546 1328.95,-515.2 1149.97,-515.2"/>
<text xml:space="preserve" text-anchor="start" x="1201.35" y="-527.4" font-family="Arial" font-weight="bold" font-size="14.00">PedidoWeb</text>
<text xml:space="preserve" text-anchor="start" x="1156.97" y="-494.2" font-family="Arial" font-size="14.00">String id PK</text>
<text xml:space="preserve" text-anchor="start" x="1156.97" y="-463.4" font-family="Arial" font-size="14.00">Int empresaId FK</text>
<text xml:space="preserve" text-anchor="start" x="1156.97" y="-432.6" font-family="Arial" font-size="14.00">Int sucursalId FK</text>
<text xml:space="preserve" text-anchor="start" x="1156.97" y="-401.8" font-family="Arial" font-size="14.00">String estado</text>
<text xml:space="preserve" text-anchor="start" x="1156.97" y="-371" font-family="Arial" font-size="14.00">String nombre</text>
<text xml:space="preserve" text-anchor="start" x="1156.97" y="-340.2" font-family="Arial" font-size="14.00">Decimal total</text>
<text xml:space="preserve" text-anchor="start" x="1156.97" y="-309.4" font-family="Arial" font-size="14.00">Int pedidoId FK nullable</text>
<text xml:space="preserve" text-anchor="start" x="1156.97" y="-278.6" font-family="Arial" font-size="14.00">Int repartidorId FK nullable</text>
<polygon fill="none" stroke="#94a3b8" points="1148.97,-267.8 1148.97,-547 1329.95,-547 1329.95,-267.8 1148.97,-267.8"/>
</g>
<!-- Empresa&#45;&gt;PedidoWeb -->
<g id="edge8" class="edge">
<title>Empresa&#45;&gt;PedidoWeb</title>
<path fill="none" stroke="#64748b" d="M145.83,-365.7C220.29,-445.8 325.9,-559.4 325.9,-559.4 325.9,-559.4 325.9,-559.4 958.84,-559.4 958.84,-559.4 1067.39,-500.4 1149.22,-455.91"/>
<text xml:space="preserve" text-anchor="middle" x="671.73" y="-562.4" font-family="Arial" font-size="10.00">empresaId</text>
<text xml:space="preserve" text-anchor="middle" x="1137.33" y="-468.99" font-family="Arial" font-size="10.00">0..N</text>
<text xml:space="preserve" text-anchor="middle" x="164.37" y="-370.22" font-family="Arial" font-size="10.00">1</text>
</g>
<!-- Sucursal&#45;&gt;Usuario -->
<g id="edge3" class="edge">
<title>Sucursal&#45;&gt;Usuario</title>
<path fill="none" stroke="#64748b" d="M388.59,-340.06C408.01,-333.23 424.59,-327.4 424.59,-327.4 424.59,-327.4 547.97,-285.4 547.97,-285.4 547.97,-285.4 583.97,-216.4 583.97,-216.4 583.97,-216.4 592.87,-203.78 604.97,-186.63"/>
<text xml:space="preserve" text-anchor="middle" x="486.28" y="-330.4" font-family="Arial" font-size="10.00">sucursalId</text>
<text xml:space="preserve" text-anchor="middle" x="601.43" y="-203.31" font-family="Arial" font-size="10.00">0..N</text>
<text xml:space="preserve" text-anchor="middle" x="402.88" y="-323.07" font-family="Arial" font-size="10.00">0..1</text>
</g>
<!-- Pedido -->
<g id="node5" class="node">
<title>Pedido</title>
<polygon fill="#e2e8f0" stroke="none" points="878.08,-365.2 878.08,-396 1037.61,-396 1037.61,-365.2 878.08,-365.2"/>
<text xml:space="preserve" text-anchor="start" x="934.51" y="-377.4" font-family="Arial" font-weight="bold" font-size="14.00">Pedido</text>
<text xml:space="preserve" text-anchor="start" x="885.08" y="-344.2" font-family="Arial" font-size="14.00">Int id PK</text>
<text xml:space="preserve" text-anchor="start" x="885.08" y="-313.4" font-family="Arial" font-size="14.00">Int sucursalId FK</text>
<text xml:space="preserve" text-anchor="start" x="885.08" y="-282.6" font-family="Arial" font-size="14.00">Int usuarioId FK</text>
<text xml:space="preserve" text-anchor="start" x="885.08" y="-251.8" font-family="Arial" font-size="14.00">Int clienteId FK nullable</text>
<text xml:space="preserve" text-anchor="start" x="885.08" y="-221" font-family="Arial" font-size="14.00">Int cajaId FK nullable</text>
<text xml:space="preserve" text-anchor="start" x="885.08" y="-190.2" font-family="Arial" font-size="14.00">String numero UK</text>
<text xml:space="preserve" text-anchor="start" x="885.08" y="-159.4" font-family="Arial" font-size="14.00">EstadoPedido estado</text>
<text xml:space="preserve" text-anchor="start" x="885.08" y="-128.6" font-family="Arial" font-size="14.00">Decimal total</text>
<polygon fill="none" stroke="#94a3b8" points="877.08,-117.8 877.08,-397 1038.61,-397 1038.61,-117.8 877.08,-117.8"/>
</g>
<!-- Sucursal&#45;&gt;Pedido -->
<g id="edge5" class="edge">
<title>Sucursal&#45;&gt;Pedido</title>
<path fill="none" stroke="#64748b" d="M388.33,-356.18C453.48,-350.56 547.97,-342.4 547.97,-342.4 547.97,-342.4 758.62,-298.61 877.52,-273.89"/>
<text xml:space="preserve" text-anchor="middle" x="671.73" y="-337.45" font-family="Arial" font-size="10.00">sucursalId</text>
<text xml:space="preserve" text-anchor="middle" x="861.49" y="-282.85" font-family="Arial" font-size="10.00">0..N</text>
<text xml:space="preserve" text-anchor="middle" x="405.66" y="-343.2" font-family="Arial" font-size="10.00">1</text>
</g>
<!-- Sucursal&#45;&gt;PedidoWeb -->
<g id="edge10" class="edge">
<title>Sucursal&#45;&gt;PedidoWeb</title>
<path fill="none" stroke="#64748b" d="M388.59,-372.07C408.01,-375.49 424.59,-378.4 424.59,-378.4 424.59,-378.4 877.08,-417.4 877.08,-417.4 877.08,-417.4 1038.61,-417.4 1038.61,-417.4 1038.61,-417.4 1095.84,-414.54 1149.06,-411.87"/>
<text xml:space="preserve" text-anchor="middle" x="818.29" y="-417.17" font-family="Arial" font-size="10.00">sucursalId</text>
<text xml:space="preserve" text-anchor="middle" x="1131.38" y="-418.22" font-family="Arial" font-size="10.00">0..N</text>
<text xml:space="preserve" text-anchor="middle" x="407.9" y="-363.88" font-family="Arial" font-size="10.00">1</text>
</g>
<!-- Usuario&#45;&gt;Pedido -->
<g id="edge6" class="edge">
<title>Usuario&#45;&gt;Pedido</title>
<path fill="none" stroke="#64748b" d="M759.13,-143.27C796.68,-164.95 840.39,-190.18 877.15,-211.4"/>
<text xml:space="preserve" text-anchor="middle" x="818.29" y="-193.09" font-family="Arial" font-size="10.00">usuarioId</text>
<text xml:space="preserve" text-anchor="middle" x="857.23" y="-206.66" font-family="Arial" font-size="10.00">0..N</text>
<text xml:space="preserve" text-anchor="middle" x="779.06" y="-142.01" font-family="Arial" font-size="10.00">1</text>
</g>
<!-- Usuario&#45;&gt;PedidoWeb -->
<g id="edge11" class="edge">
<title>Usuario&#45;&gt;PedidoWeb</title>
<path fill="none" stroke="#64748b" d="M759.39,-90.01C815.09,-87.83 877.08,-85.4 877.08,-85.4 877.08,-85.4 1038.61,-85.4 1038.61,-85.4 1038.61,-85.4 1097.95,-181.01 1151.97,-268.04"/>
<text xml:space="preserve" text-anchor="middle" x="957.84" y="-88.4" font-family="Arial" font-size="10.00">repartidorId</text>
<text xml:space="preserve" text-anchor="middle" x="1135.23" y="-254.1" font-family="Arial" font-size="10.00">0..N</text>
<text xml:space="preserve" text-anchor="middle" x="777.17" y="-77.85" font-family="Arial" font-size="10.00">0..1</text>
</g>
<!-- Cliente&#45;&gt;Pedido -->
<g id="edge7" class="edge">
<title>Cliente&#45;&gt;Pedido</title>
<path fill="none" stroke="#64748b" d="M547.7,-226.03C631.8,-232.48 784.26,-244.17 877.45,-251.31"/>
<text xml:space="preserve" text-anchor="middle" x="671.73" y="-244.71" font-family="Arial" font-size="10.00">clienteId</text>
<text xml:space="preserve" text-anchor="middle" x="858.73" y="-255.36" font-family="Arial" font-size="10.00">0..N</text>
<text xml:space="preserve" text-anchor="middle" x="566.42" y="-215.99" font-family="Arial" font-size="10.00">0..1</text>
</g>
<!-- Pedido&#45;&gt;PedidoWeb -->
<g id="edge9" class="edge">
<title>Pedido&#45;&gt;PedidoWeb</title>
<path fill="none" stroke="#64748b" d="M1038.6,-300.18C1073.14,-318.71 1113.72,-340.49 1149.26,-359.55"/>
<text xml:space="preserve" text-anchor="middle" x="1093.79" y="-339.9" font-family="Arial" font-size="10.00">pedidoId</text>
<text xml:space="preserve" text-anchor="middle" x="1129.3" y="-355.43" font-family="Arial" font-size="10.00">0..1</text>
<text xml:space="preserve" text-anchor="middle" x="1058.56" y="-298.3" font-family="Arial" font-size="10.00">0..1</text>
</g>
</g>
</svg>
