<!-- Generated by graphviz version 14.1.3 (20260303.0454)
 -->
<!-- Title: G Pages: 1 -->
<svg role="img" aria-label="Diagrama del proyecto" width="811pt" height="560pt"
 viewBox="0.00 0.00 811.00 560.00" xmlns="http://www.w3.org/2000/svg" xmlns:xlink="http://www.w3.org/1999/xlink">
<g id="graph0" class="graph" transform="scale(1 1) rotate(0) translate(21.6 538.8)">
<title>G</title>
<!-- Usuario -->
<g id="node1" class="node">
<title>Usuario</title>
<polygon fill="#e2e8f0" stroke="none" points="1,-320.2 1,-351 174.53,-351 174.53,-320.2 1,-320.2"/>
<text xml:space="preserve" text-anchor="start" x="61.7" y="-332.4" font-family="Arial" font-weight="bold" font-size="14.00">Usuario</text>
<text xml:space="preserve" text-anchor="start" x="8" y="-299.2" font-family="Arial" font-size="14.00">Int id PK</text>
<text xml:space="preserve" text-anchor="start" x="8" y="-268.4" font-family="Arial" font-size="14.00">Int empresaId FK nullable</text>
<text xml:space="preserve" text-anchor="start" x="8" y="-237.6" font-family="Arial" font-size="14.00">Int sucursalId FK nullable</text>
<text xml:space="preserve" text-anchor="start" x="8" y="-206.8" font-family="Arial" font-size="14.00">String nombre</text>
<text xml:space="preserve" text-anchor="start" x="8" y="-176" font-family="Arial" font-size="14.00">String email UK</text>
<polygon fill="none" stroke="#94a3b8" points="0,-165.2 0,-352 175.53,-352 175.53,-165.2 0,-165.2"/>
</g>
<!-- MovimientoInventario -->
<g id="node3" class="node">
<title>MovimientoInventario</title>
<polygon fill="#e2e8f0" stroke="none" points="309.68,-208.4 309.68,-239.2 468.37,-239.2 468.37,-208.4 309.68,-208.4"/>
<text xml:space="preserve" text-anchor="start" x="316.68" y="-220.6" font-family="Arial" font-weight="bold" font-size="14.00">MovimientoInventario</text>
<text xml:space="preserve" text-anchor="start" x="316.68" y="-187.4" font-family="Arial" font-size="14.00">Int id PK</text>
<text xml:space="preserve" text-anchor="start" x="316.68" y="-156.6" font-family="Arial" font-size="14.00">Int ingredienteId FK</text>
<text xml:space="preserve" text-anchor="start" x="316.68" y="-125.8" font-family="Arial" font-size="14.00">Int usuarioId FK</text>
<polygon fill="none" stroke="#94a3b8" points="308.68,-115 308.68,-240.2 469.37,-240.2 469.37,-115 308.68,-115"/>
</g>
<!-- Usuario&#45;&gt;MovimientoInventario -->
<g id="edge2" class="edge">
<title>Usuario&#45;&gt;MovimientoInventario</title>
<path fill="none" stroke="#64748b" d="M175.36,-230.38C195.68,-223.77 211.53,-218.6 211.53,-218.6 211.53,-218.6 261.89,-206.9 308.81,-196"/>
<text xml:space="preserve" text-anchor="middle" x="242.11" y="-221.6" font-family="Arial" font-size="10.00">usuarioId</text>
<text xml:space="preserve" text-anchor="middle" x="293.07" y="-205.34" font-family="Arial" font-size="10.00">0..N</text>
<text xml:space="preserve" text-anchor="middle" x="189.98" y="-213.73" font-family="Arial" font-size="10.00">1</text>
</g>
<!-- LotePreparacion -->
<g id="node5" class="node">
<title>LotePreparacion</title>
<polygon fill="#e2e8f0" stroke="none" points="318.6,-404.8 318.6,-435.6 459.45,-435.6 459.45,-404.8 318.6,-404.8"/>
<text xml:space="preserve" text-anchor="start" x="333.79" y="-417" font-family="Arial" font-weight="bold" font-size="14.00">LotePreparacion</text>
<text xml:space="preserve" text-anchor="start" x="325.6" y="-383.8" font-family="Arial" font-size="14.00">Int id PK</text>
<text xml:space="preserve" text-anchor="start" x="325.6" y="-353" font-family="Arial" font-size="14.00">Int empresaId FK</text>
<text xml:space="preserve" text-anchor="start" x="325.6" y="-322.2" font-family="Arial" font-size="14.00">Int preparacionId FK</text>
<text xml:space="preserve" text-anchor="start" x="325.6" y="-291.4" font-family="Arial" font-size="14.00">Int usuarioId FK</text>
<polygon fill="none" stroke="#94a3b8" points="317.6,-280.6 317.6,-436.6 460.45,-436.6 460.45,-280.6 317.6,-280.6"/>
</g>
<!-- Usuario&#45;&gt;LotePreparacion -->
<g id="edge4" class="edge">
<title>Usuario&#45;&gt;LotePreparacion</title>
<path fill="none" stroke="#64748b" d="M175.32,-287.52C220.55,-302.64 275.19,-320.89 317.76,-335.12"/>
<text xml:space="preserve" text-anchor="middle" x="242.11" y="-320.56" font-family="Arial" font-size="10.00">usuarioId</text>
<text xml:space="preserve" text-anchor="middle" x="297.89" y="-334.39" font-family="Arial" font-size="10.00">0..N</text>
<text xml:space="preserve" text-anchor="middle" x="195.19" y="-282.25" font-family="Arial" font-size="10.00">1</text>
</g>
<!-- Ingrediente -->
<g id="node2" class="node">
<title>Ingrediente</title>
<polygon fill="#e2e8f0" stroke="none" points="36.8,-93.4 36.8,-124.2 138.73,-124.2 138.73,-93.4 36.8,-93.4"/>
<text xml:space="preserve" text-anchor="start" x="50.04" y="-105.6" font-family="Arial" font-weight="bold" font-size="14.00">Ingrediente</text>
<text xml:space="preserve" text-anchor="start" x="43.8" y="-72.4" font-family="Arial" font-size="14.00">Int id PK</text>
<text xml:space="preserve" text-anchor="start" x="43.8" y="-41.6" font-family="Arial" font-size="14.00">String nombre</text>
<text xml:space="preserve" text-anchor="start" x="43.8" y="-10.8" font-family="Arial" font-size="14.00">Decimal stock</text>
<polygon fill="none" stroke="#94a3b8" points="35.8,0 35.8,-125.2 139.73,-125.2 139.73,0 35.8,0"/>
</g>
<!-- Ingrediente&#45;&gt;MovimientoInventario -->
<g id="edge1" class="edge">
<title>Ingrediente&#45;&gt;MovimientoInventario</title>
<path fill="none" stroke="#64748b" d="M139.53,-82.11C185.89,-99.92 255.16,-126.54 308.8,-147.16"/>
<text xml:space="preserve" text-anchor="middle" x="242.11" y="-133.4" font-family="Arial" font-size="10.00">ingredienteId</text>
<text xml:space="preserve" text-anchor="middle" x="288.85" y="-145.54" font-family="Arial" font-size="10.00">0..N</text>
<text xml:space="preserve" text-anchor="middle" x="159.48" y="-77.72" font-family="Arial" font-size="10.00">1</text>
</g>
<!-- LotePreparacionIngrediente -->
<g id="node6" class="node">
<title>LotePreparacionIngrediente</title>
<polygon fill="#e2e8f0" stroke="none" points="566.83,-126.4 566.83,-157.2 766.76,-157.2 766.76,-126.4 566.83,-126.4"/>
<text xml:space="preserve" text-anchor="start" x="573.83" y="-138.6" font-family="Arial" font-weight="bold" font-size="14.00">LotePreparacionIngrediente</text>
<text xml:space="preserve" text-anchor="start" x="573.83" y="-105.4" font-family="Arial" font-size="14.00">Int id PK</text>
<text xml:space="preserve" text-anchor="start" x="573.83" y="-74.6" font-family="Arial" font-size="14.00">Int loteId FK</text>
<text xml:space="preserve" text-anchor="start" x="573.83" y="-43.8" font-family="Arial" font-size="14.00">Int ingredienteId FK</text>
<polygon fill="none" stroke="#94a3b8" points="565.83,-33 565.83,-158.2 767.76,-158.2 767.76,-33 565.83,-33"/>
</g>
<!-- Ingrediente&#45;&gt;LotePreparacionIngrediente -->
<g id="edge6" class="edge">
<title>Ingrediente&#45;&gt;LotePreparacionIngrediente</title>
<path fill="none" stroke="#64748b" d="M139.7,-65.28C243.41,-70.73 469.37,-82.6 469.37,-82.6 469.37,-82.6 517.33,-85.77 565.85,-88.99"/>
<text xml:space="preserve" text-anchor="middle" x="389.02" y="-85.6" font-family="Arial" font-size="10.00">ingredienteId</text>
<text xml:space="preserve" text-anchor="middle" x="547.21" y="-93.22" font-family="Arial" font-size="10.00">0..N</text>
<text xml:space="preserve" text-anchor="middle" x="158.24" y="-54.79" font-family="Arial" font-size="10.00">1</text>
</g>
<!-- Preparacion -->
<g id="node4" class="node">
<title>Preparacion</title>
<polygon fill="#e2e8f0" stroke="none" points="27.08,-485.4 27.08,-516.2 148.45,-516.2 148.45,-485.4 27.08,-485.4"/>
<text xml:space="preserve" text-anchor="start" x="47.3" y="-497.6" font-family="Arial" font-weight="bold" font-size="14.00">Preparacion</text>
<text xml:space="preserve" text-anchor="start" x="34.08" y="-464.4" font-family="Arial" font-size="14.00">Int id PK</text>
<text xml:space="preserve" text-anchor="start" x="34.08" y="-433.6" font-family="Arial" font-size="14.00">Int empresaId FK</text>
<text xml:space="preserve" text-anchor="start" x="34.08" y="-402.8" font-family="Arial" font-size="14.00">String nombre</text>
<polygon fill="none" stroke="#94a3b8" points="26.08,-392 26.08,-517.2 149.45,-517.2 149.45,-392 26.08,-392"/>
</g>
<!-- Preparacion&#45;&gt;LotePreparacion -->
<g id="edge3" class="edge">
<title>Preparacion&#45;&gt;LotePreparacion</title>
<path fill="none" stroke="#64748b" d="M149.32,-435.17C198.09,-419.53 266.69,-397.52 317.84,-381.11"/>
<text xml:space="preserve" text-anchor="middle" x="242.11" y="-418.2" font-family="Arial" font-size="10.00">preparacionId</text>
<text xml:space="preserve" text-anchor="middle" x="303.16" y="-391.7" font-family="Arial" font-size="10.00">0..N</text>
<text xml:space="preserve" text-anchor="middle" x="164" y="-418.59" font-family="Arial" font-size="10.00">1</text>
</g>
<!-- LotePreparacion&#45;&gt;LotePreparacionIngrediente -->
<g id="edge5" class="edge">
<title>LotePreparacion&#45;&gt;LotePreparacionIngrediente</title>
<path fill="none" stroke="#64748b" d="M460.33,-291.55C503.41,-250.46 558.19,-198.22 600.36,-158.01"/>
<text xml:space="preserve" text-anchor="middle" x="517.6" y="-245.85" font-family="Arial" font-size="10.00">loteId</text>
<text xml:space="preserve" text-anchor="middle" x="593.07" y="-173.63" font-family="Arial" font-size="10.00">0..N</text>
<text xml:space="preserve" text-anchor="middle" x="467.61" y="-269.93" font-family="Arial" font-size="10.00">1</text>
</g>
</g>
</svg>
